<svg xmlns="http://www.w3.org/2000/svg" width="512" height="512" viewBox="0 0 512 512"><rect fill="#FFFFFF" width="512" height="512" rx="104.187" ry="105.042"/><path fill="#4285F4" d="M419.2 261.8c0-11.9-1.1-23.3-3.1-34.3H261.8v64.9h88.3c-3.8 20.5-15.4 37.9-32.8 49.5v41.2h53.1c31.1-28.6 48.8-70.8 48.8-121.3z"/><path fill="#34A853" d="M261.8 422.4c44.4 0 81.6-14.7 108.6-39.3l-53.1-41.2c-14.7 9.8-33.5 15.6-55.5 15.6-42.8 0-79-28.9-92-67.8H115v42.6c26.9 53.4 82.1 90.1 146.8 90.1z"/><path fill="#FBBC05" d="M169.8 289.7c-3.3-9.8-5.2-20.3-5.2-31.1s1.9-21.3 5.2-31.1v-42.6H115c-11.1 22.1-17.4 47.1-17.4 73.7s6.3 51.6 17.4 73.7l54.8-42.6z"/><path fill="#EA4335" d="M261.8 159.8c24.1 0 45.8 8.3 62.8 24.6l47.1-47.1c-28.5-26.5-65.7-42.8-109.9-42.8-64.7 0-119.9 36.7-146.8 90.1l54.8 42.6c13-38.9 49.2-67.4 92-67.4z"/></svg>
