<svg xmlns="http://www.w3.org/2000/svg" width="512" height="512" viewBox="0 0 512 512"><rect fill="#000000" width="512" height="512" rx="104.187" ry="105.042"/><path fill="#FFFFFF" d="M378.4 224.6c6.9-20.7 4.5-43.4-6.5-62.2-16.6-28.9-50-43.8-82.6-36.8-14.5-16.3-35.3-25.6-57.1-25.5-33.3-.1-62.8 21.3-73.1 53-21.4 4.4-39.8 17.8-50.6 36.8-16.7 28.9-12.9 65.3 9.5 90.1-6.9 20.7-4.5 43.4 6.5 62.2 16.6 28.9 50 43.8 82.6 36.8 14.5 16.3 35.3 25.6 57.1 25.5 33.3.1 62.8-21.3 73.1-53.1 21.4-4.4 39.8-17.8 50.6-36.8 16.7-28.9 12.9-65.2-9.5-90zM263.2 385.4c-13.3 0-26.2-4.7-36.4-13.2.5-.3 1.3-.7 1.8-1l60.4-34.9c3.1-1.8 5-5.1 5-8.7v-85.2l25.5 14.7c.3.1.5.4.5.7v70.5c0 31.5-25.4 57-56.8 57.1zm-122.2-52.2c-6.7-11.5-9.1-25-6.8-38.1.4.3 1.2.7 1.8 1l60.4 34.9c3.1 1.8 6.9 1.8 10 0l73.8-42.6v29.5c0 .3-.1.6-.4.8l-61.1 35.3c-27.3 15.7-62.1 6.4-77.7-20.8zm-15.9-131.7c6.6-11.5 17.1-20.4 29.5-25v71.8c0 3.6 1.9 6.9 5 8.7l73.8 42.6-25.5 14.7c-.3.2-.6.2-.9.1l-61.1-35.3c-27.2-15.8-36.6-50.5-20.8-77.6zm209.9 48.8l-73.8-42.6 25.5-14.7c.3-.2.6-.2.9-.1l61.1 35.3c27.3 15.7 36.6 50.5 20.9 77.7-6.6 11.5-17.1 20.3-29.5 25v-71.9c0-3.6-1.9-6.9-5.1-8.7zm25.4-38.2c-.4-.3-1.2-.7-1.8-1l-60.4-34.9c-3.1-1.8-6.9-1.8-10 0l-73.8 42.6v-29.5c0-.3.1-.6.4-.8l61.1-35.2c27.3-15.7 62.1-6.4 77.8 20.9 6.6 11.5 9 24.9 6.7 37.9zm-159.9 52.6l-25.5-14.7c-.3-.1-.5-.4-.5-.7v-70.5c0-31.5 25.6-57 57.1-56.9 13.3 0 26.1 4.7 36.3 13.2-.5.3-1.3.7-1.8 1l-60.4 34.9c-3.1 1.8-5 5.1-5 8.7l-.2 85zm13.9-29.8l32.9-19 32.9 19v38l-32.9 19-32.9-19v-38z"/></svg>
